<svg version="1.1" xmlns="http://www.w3.org/2000/svg" xmlns:xlink="http://www.w3.org/1999/xlink" width="536.03603" height="431.17493" viewBox="0,0,536.03603,431.17493"><g transform="translate(28.018,35.58746)"><g data-paper-data="{&quot;isPaintingLayer&quot;:true}" fill-rule="nonzero" stroke-linejoin="miter" stroke-miterlimit="10" stroke-dasharray="" stroke-dashoffset="0" style="mix-blend-mode: normal"><path d="M414.83968,223.31728v-18h46v18z" fill="#828282" stroke="#000000" stroke-width="2.5" stroke-linecap="butt"/><path d="M-16.00599,374.32246v-408.40841h33.03303v408.40841z" fill="#828282" stroke="#000000" stroke-width="2.5" stroke-linecap="butt"/><path d="M-2.14059,376.7102v-51.05105h489.48949v51.05105z" fill="#828282" stroke="#000000" stroke-width="2.5" stroke-linecap="butt"/><path d="M-1.6451,377.2057v-51.05105h489.48949v51.05105z" data-paper-data="{&quot;index&quot;:null}" fill="#828282" stroke="#000000" stroke-width="2.5" stroke-linecap="butt"/><path d="M489.34589,-2.28549v51.05105h-489.48949v-51.05105z" data-paper-data="{&quot;index&quot;:null}" fill="#828282" stroke="#000000" stroke-width="2.5" stroke-linecap="butt"/><path d="M489.84138,-2.78099v51.05105h-489.48949v-51.05105z" data-paper-data="{&quot;index&quot;:null}" fill="#828282" stroke="#000000" stroke-width="2.5" stroke-linecap="butt"/><path d="M461.96699,394.33748v-408.4084h33.03303v408.4084z" fill="#828282" stroke="#000000" stroke-width="2.5" stroke-linecap="butt"/><path d="M437.44747,46.99514v-61.56156h36.03604v61.56156z" fill="#828282" stroke="none" stroke-width="0" stroke-linecap="butt"/><path d="M-28.018,62.01014v-97.5976h43.54354v97.5976z" fill="#828282" stroke="none" stroke-width="0" stroke-linecap="butt"/><path d="M-9.99999,383.33147v-94.59459h25.52553v94.59459z" fill="#828282" stroke="none" stroke-width="0" stroke-linecap="butt"/><path d="M455.68787,221.52847v-14.5h7.28268v14.5z" fill="#828282" stroke="none" stroke-width="0" stroke-linecap="butt"/><path d="M434.44447,389.33748v-61.56156h73.57357v61.56156z" fill="#828282" stroke="none" stroke-width="0" stroke-linecap="butt"/><path d="M233.09849,335.62772v-8.25h24.75v8.25z" fill="#828282" stroke="none" stroke-width="0" stroke-linecap="butt"/><path d="M141.83968,324.99334v-56h26v56z" fill="#cc1d1d" stroke="#000000" stroke-width="2.5" stroke-linecap="butt"/><path d="M225.83968,307.99334v-102h26v102z" fill="#954d4d" stroke="#000000" stroke-width="2.5" stroke-linecap="butt"/><path d="M52.83967,155.31725v-19h125v19z" fill="#954d4d" stroke="#000000" stroke-width="2.5" stroke-linecap="butt"/><path d="M293.83968,152.31728v-19h125v19z" fill="#954d4d" stroke="#000000" stroke-width="2.5" stroke-linecap="butt"/><path d="M17.83967,221.31727v-18h46v18z" fill="#828282" stroke="#000000" stroke-width="2.5" stroke-linecap="butt"/><path d="M15.67304,220.21773v-15.5h8.9788v15.5z" fill="#828282" stroke="none" stroke-width="0" stroke-linecap="butt"/><path d="M168.36432,145.85392c0,-1.38071 1.11929,-2.5 2.5,-2.5c1.38071,0 2.5,1.11929 2.5,2.5c0,1.38071 -1.11929,2.5 -2.5,2.5c-1.38071,0 -2.5,-1.11929 -2.5,-2.5z" fill="#000000" stroke="none" stroke-width="0.5" stroke-linecap="butt"/><path d="M56.94121,145.40462c0,-1.38071 1.11929,-2.5 2.5,-2.5c1.38071,0 2.5,1.11929 2.5,2.5c0,1.38071 -1.11929,2.5 -2.5,2.5c-1.38071,0 -2.5,-1.11929 -2.5,-2.5z" fill="#000000" stroke="none" stroke-width="0.5" stroke-linecap="butt"/><path d="M299.9213,142.7089c0,-1.38071 1.11929,-2.5 2.5,-2.5c1.38071,0 2.5,1.11929 2.5,2.5c0,1.38071 -1.11929,2.5 -2.5,2.5c-1.38071,0 -2.5,-1.11929 -2.5,-2.5z" fill="#000000" stroke="none" stroke-width="0.5" stroke-linecap="butt"/><path d="M406.83636,143.15819c0,-1.38071 1.11929,-2.5 2.5,-2.5c1.38071,0 2.5,1.11929 2.5,2.5c0,1.38071 -1.11929,2.5 -2.5,2.5c-1.38071,0 -2.5,-1.11929 -2.5,-2.5z" fill="#000000" stroke="none" stroke-width="0.5" stroke-linecap="butt"/><path d="M230.49026,302.09378c0,-1.38071 1.11929,-2.5 2.5,-2.5c1.38071,0 2.5,1.11929 2.5,2.5c0,1.38071 -1.11929,2.5 -2.5,2.5c-1.38071,0 -2.5,-1.11929 -2.5,-2.5z" fill="#000000" stroke="none" stroke-width="0.5" stroke-linecap="butt"/><path d="M242.49026,301.59378c0,-1.38071 1.11929,-2.5 2.5,-2.5c1.38071,0 2.5,1.11929 2.5,2.5c0,1.38071 -1.11929,2.5 -2.5,2.5c-1.38071,0 -2.5,-1.11929 -2.5,-2.5z" fill="#000000" stroke="none" stroke-width="0.5" stroke-linecap="butt"/><path d="M229.49026,212.09379c0,-1.38071 1.11929,-2.5 2.5,-2.5c1.38071,0 2.5,1.11929 2.5,2.5c0,1.38071 -1.11929,2.5 -2.5,2.5c-1.38071,0 -2.5,-1.11929 -2.5,-2.5z" fill="#000000" stroke="none" stroke-width="0.5" stroke-linecap="butt"/><path d="M242.99026,213.09379c0,-1.38071 1.11929,-2.5 2.5,-2.5c1.38071,0 2.5,1.11929 2.5,2.5c0,1.38071 -1.11929,2.5 -2.5,2.5c-1.38071,0 -2.5,-1.11929 -2.5,-2.5z" fill="#000000" stroke="none" stroke-width="0.5" stroke-linecap="butt"/><path d="M150.54146,291.85808v-9.68087h15.89125v9.68087z" fill="#ff0000" stroke="none" stroke-width="0" stroke-linecap="butt"/><path d="M166.18307,305.21612h-23.74554" fill="none" stroke="#000000" stroke-width="2.5" stroke-linecap="round"/><path d="M142.86985,279.64727v-9.31556h16.0739v9.31556z" fill="#d44545" stroke="none" stroke-width="0" stroke-linecap="butt"/><path d="M166.54839,293.16069h-23.38022" fill="none" stroke="#000000" stroke-width="2.5" stroke-linecap="round"/><path d="M159.42742,303.82944v-9.31556h6.941v9.31556z" fill="#ff5454" stroke="none" stroke-width="0" stroke-linecap="butt"/><path d="M143.48729,280.8764h23.38022" fill="none" stroke="#000000" stroke-width="2.5" stroke-linecap="round"/><path d="M141.74722,324.60607v-56h26v56z" fill="none" stroke="#000000" stroke-width="2.5" stroke-linecap="butt"/><path d="M143.04368,327.52409v-13.37634h23.5v13.37634z" fill="#cc1d1d" stroke="none" stroke-width="0" stroke-linecap="butt"/><path d="M143.23514,327.29373v-8.58493h16.43922v8.58493z" fill="#ff0000" stroke="none" stroke-width="0" stroke-linecap="butt"/><path d="M142.60437,318.03623h23.02349l1.83383,0.14859" fill="none" stroke="#000000" stroke-width="2.5" stroke-linecap="round"/><path d="M143.05248,316.54501v-10.04619h6.941v10.04619z" fill="#d44545" stroke="none" stroke-width="0" stroke-linecap="butt"/><path d="M159.5307,319.55812v7.83333" fill="none" stroke="#000000" stroke-width="1.5" stroke-linecap="round"/><path d="M149.86404,316.72477v-10.33333" fill="none" stroke="#000000" stroke-width="1.5" stroke-linecap="round"/><path d="M159.19735,304.05809l0.33333,-9.83333" fill="none" stroke="#000000" stroke-width="1.5" stroke-linecap="round"/><path d="M150.19735,291.92675v-9.83333" fill="none" stroke="#000000" stroke-width="1.5" stroke-linecap="round"/><path d="M158.69735,280.1584l0.16667,-10" fill="none" stroke="#000000" stroke-width="1.5" stroke-linecap="round"/><g stroke-linecap="butt"><path d="M293.46925,325.49535v-53.35382h53.35382v53.35382z" fill="#923131" stroke="#000000" stroke-width="2.5"/><path d="M346.24204,280.03639l-44.52093,44.39197l-7.31965,-0.20645l0.16133,-6.86435l44.9431,-44.60306l6.49917,0.24143z" fill="#561d1d" stroke="none" stroke-width="0"/><path d="M301.89187,272.56953l43.97991,44.92803l-0.27388,7.31744l-6.86258,-0.22457l-44.18709,-45.35213l0.30129,-6.49667z" fill="#561d1d" stroke="none" stroke-width="0"/><path d="M293.17215,325.56358v-53.35382h53.35383v53.35382z" fill="none" stroke="#000000" stroke-width="2.5"/><path d="M338.96891,320.455c0,-1.38071 1.11929,-2.5 2.5,-2.5c1.38071,0 2.5,1.11929 2.5,2.5c0,1.38071 -1.11929,2.5 -2.5,2.5c-1.38071,0 -2.5,-1.11929 -2.5,-2.5z" fill="#000000" stroke="none" stroke-width="0.5"/><path d="M296.40959,319.90702c0,-1.38071 1.11929,-2.5 2.5,-2.5c1.38071,0 2.5,1.11929 2.5,2.5c0,1.38071 -1.11929,2.5 -2.5,2.5c-1.38071,0 -2.5,-1.11929 -2.5,-2.5z" fill="#000000" stroke="none" stroke-width="0.5"/><path d="M296.77491,277.70345c0,-1.38071 1.11929,-2.5 2.5,-2.5c1.38071,0 2.5,1.11929 2.5,2.5c0,1.38071 -1.11929,2.5 -2.5,2.5c-1.38071,0 -2.5,-1.11929 -2.5,-2.5z" fill="#000000" stroke="none" stroke-width="0.5"/><path d="M338.60359,278.2514c0,-1.38071 1.11929,-2.5 2.5,-2.5c1.38071,0 2.5,1.11929 2.5,2.5c0,1.38071 -1.11929,2.5 -2.5,2.5c-1.38071,0 -2.5,-1.11929 -2.5,-2.5z" fill="#000000" stroke="none" stroke-width="0.5"/></g></g></g></svg>